# xmcd CD database file
# Copyright (C) 1997 Ti Kan
# 
# Track frame offsets:
#     182
#     14310
#     27470
#     39870
#     54450
#     69747
#     85057
#     97967
#     107362
#     122372
# 
# Disc length: 1809 seconds
# 
# Revision: 1
# Processed by: cddbd v1.4b41PL1 Copyright (c) Steve Scherf et al.
# Submitted via: DiscPlay 4.0.4
# 
DISCID=6e070f0a
DTITLE=Jeff Chance - Walk Softly On The Bridges
DYEAR=1900
DGENRE=
TTITLE0=Walk Softly On the Bridges
TTITLE1=Portrait Of the Blues
TTITLE2=Touching Home
TTITLE3=Get Used To It
TTITLE4=A Heartache On Her Hands
TTITLE5=This Door Swings Both Ways
TTITLE6=Where Do I Go From Her
TTITLE7=Alone In San Antone
TTITLE8=If I Hurt You
TTITLE9=Casting My Shadow In The Road
EXTD=
EXTT0=
EXTT1=
EXTT2=
EXTT3=
EXTT4=
EXTT5=
EXTT6=
EXTT7=
EXTT8=
EXTT9=
PLAYORDER=
